<svg xmlns="http://www.w3.org/2000/svg" version="1.1" xmlns:xlink="http://www.w3.org/1999/xlink" width="512" height="512" x="0" y="0" viewBox="0 0 497 497" style="enable-background:new 0 0 512 512" xml:space="preserve" class=""><g><path fill="#077ccc" d="M248.767 13.222 363.29 207.048l32.462-15.16a150.696 150.696 0 0 0 2.749-28.669c0-82.754-67.014-149.853-149.734-149.997z" opacity="1" data-original="#077ccc"></path><path fill="#09a1e5" d="M248.767 13.222c-.089 0-.177-.003-.266-.003C165.658 13.219 98.5 80.377 98.5 163.22c0 9.806.952 19.388 2.748 28.669l147.254 68.766 114.789-53.607c3.384-13.865 5.21-28.58 5.21-43.829-.001-82.732-53.583-149.816-119.734-149.997z" opacity="1" data-original="#09a1e5" class=""></path><path fill="#ff3187" d="M395.752 191.888h-48.754v291.893C429.842 483.781 497 416.623 497 333.78c0-65.775-42.338-121.656-101.248-141.892z" opacity="1" data-original="#ff3187"></path><path fill="#ff5178" d="m394.844 196.189-146.345 55.7v195.017c26.352 22.964 60.8 36.875 98.5 36.875C413.273 483.781 467 416.623 467 333.78c.001-61.583-29.693-114.488-72.156-137.591z" opacity="1" data-original="#ff5178"></path><path fill="#622876" d="m347 183.78 47.845 12.408c.32-1.427.629-2.858.908-4.301-15.287-5.25-31.686-8.107-48.753-8.107z" opacity="1" data-original="#622876"></path><path fill="#962b7c" d="M347 183.78c-37.699 0-72.146 13.911-98.499 36.875l48.753 84.456c48.761-16.751 86.151-57.93 97.59-108.922-14.659-7.976-30.836-12.409-47.844-12.409z" opacity="1" data-original="#962b7c"></path><path fill="#ffb24a" d="M150.032 483.781c37.687-.008 72.122-13.917 98.467-36.874v-27.438z" opacity="1" data-original="#ffb24a"></path><path fill="#ffd23b" d="M248.499 419.468V251.889l-147.252-60C42.339 212.126 0 268.007 0 333.781c0 82.843 67.157 150 150 150 40.806-.013 76.821-25.45 98.499-64.313z" opacity="1" data-original="#ffd23b" class=""></path><path fill="#49b296" d="M248.501 220.655c-26.352-22.964-60.801-36.875-98.5-36.875l98.5 67.433z" opacity="1" data-original="#49b296"></path><path fill="#89c247" d="M150.001 183.78c-17.068 0-33.467 2.857-48.754 8.109 10.254 52.973 48.372 96.004 98.499 113.223l37.807-73.898c-21.893-29.19-53.016-47.433-87.552-47.434z" opacity="1" data-original="#89c247" class=""></path><path fill="#ff7169" d="M297.254 305.111a149.14 149.14 0 0 1-28.531 6.746l-31.167 124.489a151.056 151.056 0 0 0 10.943 10.559c31.557-27.499 51.503-67.982 51.503-113.126 0-9.805-.952-19.387-2.748-28.668z" opacity="1" data-original="#ff7169"></path><path fill="#ff9259" d="M268.723 311.858a151.083 151.083 0 0 1-20.223 1.362c-17.068 0-33.467-2.857-48.753-8.108a150.688 150.688 0 0 0-2.749 28.669c0 39.672 15.407 75.741 40.558 102.565 20.12-26.825 32.447-62.893 32.447-102.565a188.704 188.704 0 0 0-1.28-21.923z" opacity="1" data-original="#ff9259"></path><path fill="#2d2570" d="M248.501 220.655a150.69 150.69 0 0 0-10.947 10.558l31.169 80.644a149.215 149.215 0 0 0 28.531-6.746c-6.474-33.446-24.052-62.93-48.753-84.456z" opacity="1" data-original="#2d2570"></path><path fill="#2d3e53" d="M199.747 305.112c15.286 5.251 31.685 8.108 48.753 8.108 6.859 0 13.608-.469 20.223-1.362-3.628-30.966-14.825-58.855-31.169-80.644-18.932 20.194-32.336 45.631-37.807 73.898z" opacity="1" data-original="#2d3e53"></path></g></svg>
